<?xml version="1.0" standalone="no"?>
<!DOCTYPE svg PUBLIC "-//W3C//DTD SVG 20010904//EN"
 "http://www.w3.org/TR/2001/REC-SVG-20010904/DTD/svg10.dtd">
<svg version="1.0" xmlns="http://www.w3.org/2000/svg"
 width="122.000000pt" height="122.000000pt" viewBox="0 0 122.000000 122.000000"
 preserveAspectRatio="xMidYMid meet">
<metadata>
Created by potrace 1.11, written by Peter Selinger 2001-2013
</metadata>
<g transform="translate(0.000000,122.000000) scale(0.100000,-0.100000)"
fill="#000000" stroke="none">
<path d="M493 1189 c-79 -13 -170 -54 -245 -109 -286 -210 -322 -627 -77 -885
148 -155 347 -221 547 -181 301 61 495 296 453 549 -17 101 -58 180 -133 255
-180 180 -446 188 -636 18 -52 -46 -54 -46 -17 -7 22 23 61 56 88 73 50 32 54
39 34 60 -7 7 -23 30 -36 51 -13 21 -29 43 -35 50 -22 22 -38 57 -26 57 6 0 8
5 5 10 -3 6 -2 10 4 10 5 0 17 7 25 16 22 22 128 37 221 31 59 -4 70 -3 40 3
-50 11 -143 10 -212 -1z"/>
<path d="M795 1162 c28 -11 69 -29 93 -41 23 -12 42 -19 42 -16 0 9 -121 63
-155 70 -16 3 -7 -3 20 -13z"/>
<path d="M1025 1020 c33 -33 62 -60 64 -60 3 0 -21 27 -54 60 -33 33 -62 60
-64 60 -3 0 21 -27 54 -60z"/>
</g>
</svg>
